<svg id="visual" viewBox="0 0 900 600" width="900" height="600" xmlns="http://www.w3.org/2000/svg" xmlns:xlink="http://www.w3.org/1999/xlink" version="1.1"><path d="M0 85L10.7 89C21.3 93 42.7 101 64.2 102C85.7 103 107.3 97 128.8 93C150.3 89 171.7 87 193 81C214.3 75 235.7 65 257 63C278.3 61 299.7 67 321.2 70C342.7 73 364.3 73 385.8 73C407.3 73 428.7 73 450 71C471.3 69 492.7 65 514.2 69C535.7 73 557.3 85 578.8 90C600.3 95 621.7 93 643 98C664.3 103 685.7 115 707 117C728.3 119 749.7 111 771.2 104C792.7 97 814.3 91 835.8 92C857.3 93 878.7 101 889.3 105L900 109L900 0L889.3 0C878.7 0 857.3 0 835.8 0C814.3 0 792.7 0 771.2 0C749.7 0 728.3 0 707 0C685.7 0 664.3 0 643 0C621.7 0 600.3 0 578.8 0C557.3 0 535.7 0 514.2 0C492.7 0 471.3 0 450 0C428.7 0 407.3 0 385.8 0C364.3 0 342.7 0 321.2 0C299.7 0 278.3 0 257 0C235.7 0 214.3 0 193 0C171.7 0 150.3 0 128.8 0C107.3 0 85.7 0 64.2 0C42.7 0 21.3 0 10.7 0L0 0Z" fill="#505766"></path><path d="M0 175L10.7 175C21.3 175 42.7 175 64.2 173C85.7 171 107.3 167 128.8 160C150.3 153 171.7 143 193 137C214.3 131 235.7 129 257 135C278.3 141 299.7 155 321.2 159C342.7 163 364.3 157 385.8 151C407.3 145 428.7 139 450 137C471.3 135 492.7 137 514.2 137C535.7 137 557.3 135 578.8 140C600.3 145 621.7 157 643 168C664.3 179 685.7 189 707 190C728.3 191 749.7 183 771.2 170C792.7 157 814.3 139 835.8 142C857.3 145 878.7 169 889.3 181L900 193L900 107L889.3 103C878.7 99 857.3 91 835.8 90C814.3 89 792.7 95 771.2 102C749.7 109 728.3 117 707 115C685.7 113 664.3 101 643 96C621.7 91 600.3 93 578.8 88C557.3 83 535.7 71 514.2 67C492.7 63 471.3 67 450 69C428.7 71 407.3 71 385.8 71C364.3 71 342.7 71 321.2 68C299.7 65 278.3 59 257 61C235.7 63 214.3 73 193 79C171.7 85 150.3 87 128.8 91C107.3 95 85.7 101 64.2 100C42.7 99 21.3 91 10.7 87L0 83Z" fill="#3f4553"></path><path d="M0 265L10.7 267C21.3 269 42.7 273 64.2 269C85.7 265 107.3 253 128.8 243C150.3 233 171.7 225 193 235C214.3 245 235.7 273 257 295C278.3 317 299.7 333 321.2 342C342.7 351 364.3 353 385.8 350C407.3 347 428.7 339 450 343C471.3 347 492.7 363 514.2 360C535.7 357 557.3 335 578.8 316C600.3 297 621.7 281 643 276C664.3 271 685.7 277 707 275C728.3 273 749.7 263 771.2 273C792.7 283 814.3 313 835.8 326C857.3 339 878.7 335 889.3 333L900 331L900 191L889.3 179C878.7 167 857.3 143 835.8 140C814.3 137 792.7 155 771.2 168C749.7 181 728.3 189 707 188C685.7 187 664.3 177 643 166C621.7 155 600.3 143 578.8 138C557.3 133 535.7 135 514.2 135C492.7 135 471.3 133 450 135C428.7 137 407.3 143 385.8 149C364.3 155 342.7 161 321.2 157C299.7 153 278.3 139 257 133C235.7 127 214.3 129 193 135C171.7 141 150.3 151 128.8 158C107.3 165 85.7 169 64.2 171C42.7 173 21.3 173 10.7 173L0 173Z" fill="#2e3440"></path><path d="M0 325L10.7 327C21.3 329 42.7 333 64.2 345C85.7 357 107.3 377 128.8 384C150.3 391 171.7 385 193 388C214.3 391 235.7 403 257 417C278.3 431 299.7 447 321.2 446C342.7 445 364.3 427 385.8 430C407.3 433 428.7 457 450 474C471.3 491 492.7 501 514.2 495C535.7 489 557.3 467 578.8 444C600.3 421 621.7 397 643 385C664.3 373 685.7 373 707 378C728.3 383 749.7 393 771.2 398C792.7 403 814.3 403 835.8 412C857.3 421 878.7 439 889.3 448L900 457L900 329L889.3 331C878.7 333 857.3 337 835.8 324C814.3 311 792.7 281 771.2 271C749.7 261 728.3 271 707 273C685.7 275 664.3 269 643 274C621.7 279 600.3 295 578.8 314C557.3 333 535.7 355 514.2 358C492.7 361 471.3 345 450 341C428.7 337 407.3 345 385.8 348C364.3 351 342.7 349 321.2 340C299.7 331 278.3 315 257 293C235.7 271 214.3 243 193 233C171.7 223 150.3 231 128.8 241C107.3 251 85.7 263 64.2 267C42.7 271 21.3 267 10.7 265L0 263Z" fill="#282d37"></path><path d="M0 601L10.7 601C21.3 601 42.7 601 64.2 601C85.7 601 107.3 601 128.8 601C150.3 601 171.7 601 193 601C214.3 601 235.7 601 257 601C278.3 601 299.7 601 321.2 601C342.7 601 364.3 601 385.8 601C407.3 601 428.7 601 450 601C471.3 601 492.7 601 514.2 601C535.7 601 557.3 601 578.8 601C600.3 601 621.7 601 643 601C664.3 601 685.7 601 707 601C728.3 601 749.7 601 771.2 601C792.7 601 814.3 601 835.8 601C857.3 601 878.7 601 889.3 601L900 601L900 455L889.3 446C878.7 437 857.3 419 835.8 410C814.3 401 792.7 401 771.2 396C749.7 391 728.3 381 707 376C685.7 371 664.3 371 643 383C621.7 395 600.3 419 578.8 442C557.3 465 535.7 487 514.2 493C492.7 499 471.3 489 450 472C428.7 455 407.3 431 385.8 428C364.3 425 342.7 443 321.2 444C299.7 445 278.3 429 257 415C235.7 401 214.3 389 193 386C171.7 383 150.3 389 128.8 382C107.3 375 85.7 355 64.2 343C42.7 331 21.3 327 10.7 325L0 323Z" fill="#23272f"></path></svg>