<svg id="visual" viewBox="0 0 900 600" width="900" height="600" xmlns="http://www.w3.org/2000/svg" xmlns:xlink="http://www.w3.org/1999/xlink" version="1.1"><path d="M0 139L82 127L164 115L245 163L327 85L409 61L491 127L573 133L655 121L736 103L818 67L900 163L900 0L818 0L736 0L655 0L573 0L491 0L409 0L327 0L245 0L164 0L82 0L0 0Z" fill="#2e3440"></path><path d="M0 289L82 277L164 253L245 337L327 313L409 241L491 235L573 295L655 355L736 295L818 337L900 265L900 161L818 65L736 101L655 119L573 131L491 125L409 59L327 83L245 161L164 113L82 125L0 137Z" fill="#3b4659"></path><path d="M0 487L82 445L164 403L245 505L327 463L409 457L491 427L573 451L655 433L736 421L818 445L900 487L900 263L818 335L736 293L655 353L573 293L491 233L409 239L327 311L245 335L164 251L82 275L0 287Z" fill="#475974"></path><path d="M0 565L82 511L164 523L245 547L327 505L409 553L491 541L573 553L655 511L736 529L818 553L900 529L900 485L818 443L736 419L655 431L573 449L491 425L409 455L327 461L245 503L164 401L82 443L0 485Z" fill="#536d90"></path><path d="M0 601L82 601L164 601L245 601L327 601L409 601L491 601L573 601L655 601L736 601L818 601L900 601L900 527L818 551L736 527L655 509L573 551L491 539L409 551L327 503L245 545L164 521L82 509L0 563Z" fill="#5e81ac"></path></svg>